<svg width="98" height="79" viewBox="0 0 98 79" fill="none" xmlns="http://www.w3.org/2000/svg">
<g filter="url(#filter0_d_571_64)">
<path d="M18.2105 0H79.7895C83.5583 0 87.1728 1.49607 89.8378 4.15908C92.5028 6.8221 94 10.4339 94 14.2V56.8C94 60.5661 92.5028 64.1779 89.8378 66.8409C87.1728 69.5039 83.5583 71 79.7895 71H18.2105C14.4417 71 10.8272 69.5039 8.16217 66.8409C5.49718 64.1779 4 60.5661 4 56.8V14.2C4 10.4339 5.49718 6.8221 8.16217 4.15908C10.8272 1.49607 14.4417 0 18.2105 0ZM18.2105 4.73333C15.8421 4.73333 13.7579 5.538 12.1474 6.958L49 30.7667L85.8526 6.958C84.2421 5.538 82.1579 4.73333 79.7895 4.73333H18.2105ZM49 36.494L9.35263 10.792C8.97368 11.8333 8.73684 13.0167 8.73684 14.2V56.8C8.73684 59.3107 9.73496 61.7186 11.5116 63.4939C13.2883 65.2693 15.6979 66.2667 18.2105 66.2667H79.7895C82.3021 66.2667 84.7117 65.2693 86.4884 63.4939C88.265 61.7186 89.2632 59.3107 89.2632 56.8V14.2C89.2632 13.0167 89.0263 11.8333 88.6474 10.792L49 36.494Z" fill="white"/>
</g>
<defs>
<filter id="filter0_d_571_64" x="0" y="0" width="98" height="79" filterUnits="userSpaceOnUse" color-interpolation-filters="sRGB">
<feFlood flood-opacity="0" result="BackgroundImageFix"/>
<feColorMatrix in="SourceAlpha" type="matrix" values="0 0 0 0 0 0 0 0 0 0 0 0 0 0 0 0 0 0 127 0" result="hardAlpha"/>
<feOffset dy="4"/>
<feGaussianBlur stdDeviation="2"/>
<feComposite in2="hardAlpha" operator="out"/>
<feColorMatrix type="matrix" values="0 0 0 0 0 0 0 0 0 0 0 0 0 0 0 0 0 0 0.25 0"/>
<feBlend mode="normal" in2="BackgroundImageFix" result="effect1_dropShadow_571_64"/>
<feBlend mode="normal" in="SourceGraphic" in2="effect1_dropShadow_571_64" result="shape"/>
</filter>
</defs>
</svg>
