<svg width="136" height="133" viewBox="0 0 136 133" fill="none" xmlns="http://www.w3.org/2000/svg">
<g filter="url(#filter0_d_570_56)">
<path fill-rule="evenodd" clip-rule="evenodd" d="M68 0C32.64 0 4 28.64 4 64C4 92.32 22.32 116.24 47.76 124.72C50.96 125.28 52.16 123.36 52.16 121.68C52.16 120.16 52.08 115.12 52.08 109.76C36 112.72 31.84 105.84 30.56 102.24C29.84 100.4 26.72 94.72 24 93.2C21.76 92 18.56 89.04 23.92 88.96C28.96 88.88 32.56 93.6 33.76 95.52C39.52 105.2 48.72 102.48 52.4 100.8C52.96 96.64 54.64 93.84 56.48 92.24C42.24 90.64 27.36 85.12 27.36 60.64C27.36 53.68 29.84 47.92 33.92 43.44C33.28 41.84 31.04 35.28 34.56 26.48C34.56 26.48 39.92 24.8 52.16 33.04C57.28 31.6 62.72 30.88 68.16 30.88C73.6 30.88 79.04 31.6 84.16 33.04C96.4 24.72 101.76 26.48 101.76 26.48C105.28 35.28 103.04 41.84 102.4 43.44C106.48 47.92 108.96 53.6 108.96 60.64C108.96 85.2 94 90.64 79.76 92.24C82.08 94.24 84.08 98.08 84.08 104.08C84.08 112.64 84 119.52 84 121.68C84 123.36 85.2 125.36 88.4 124.72C101.105 120.431 112.145 112.265 119.966 101.373C127.787 90.4803 131.996 77.4095 132 64C132 28.64 103.36 0 68 0Z" fill="black"/>
</g>
<defs>
<filter id="filter0_d_570_56" x="0" y="0" width="136" height="132.842" filterUnits="userSpaceOnUse" color-interpolation-filters="sRGB">
<feFlood flood-opacity="0" result="BackgroundImageFix"/>
<feColorMatrix in="SourceAlpha" type="matrix" values="0 0 0 0 0 0 0 0 0 0 0 0 0 0 0 0 0 0 127 0" result="hardAlpha"/>
<feOffset dy="4"/>
<feGaussianBlur stdDeviation="2"/>
<feComposite in2="hardAlpha" operator="out"/>
<feColorMatrix type="matrix" values="0 0 0 0 0 0 0 0 0 0 0 0 0 0 0 0 0 0 0.25 0"/>
<feBlend mode="normal" in2="BackgroundImageFix" result="effect1_dropShadow_570_56"/>
<feBlend mode="normal" in="SourceGraphic" in2="effect1_dropShadow_570_56" result="shape"/>
</filter>
</defs>
</svg>
