<svg width="50" height="50" viewBox="0 0 50 50" fill="none" xmlns="http://www.w3.org/2000/svg">
<g filter="url(#filter0_d_587_39)">
<path d="M25 25.4715L9.34981 41.1217C8.76426 41.7072 8.01901 42 7.11407 42C6.20913 42 5.46388 41.7072 4.87833 41.1217C4.29277 40.5361 4 39.7909 4 38.8859C4 37.981 4.29277 37.2357 4.87833 36.6502L20.5285 21L4.87833 5.34981C4.29277 4.76426 4 4.01901 4 3.11407C4 2.20913 4.29277 1.46388 4.87833 0.878326C5.46388 0.292774 6.20913 0 7.11407 0C8.01901 0 8.76426 0.292774 9.34981 0.878326L25 16.5285L40.6502 0.878326C41.2357 0.292774 41.981 0 42.8859 0C43.7909 0 44.5361 0.292774 45.1217 0.878326C45.7072 1.46388 46 2.20913 46 3.11407C46 4.01901 45.7072 4.76426 45.1217 5.34981L29.4715 21L45.1217 36.6502C45.7072 37.2357 46 37.981 46 38.8859C46 39.7909 45.7072 40.5361 45.1217 41.1217C44.5361 41.7072 43.7909 42 42.8859 42C41.981 42 41.2357 41.7072 40.6502 41.1217L25 25.4715Z" fill="#FF1515"/>
<path d="M25.3536 25.1179L25 24.7644L24.6464 25.1179L8.99626 40.7681C8.51363 41.2507 7.89995 41.5 7.11407 41.5C6.32819 41.5 5.7145 41.2507 5.23188 40.7681C4.74926 40.2855 4.5 39.6718 4.5 38.8859C4.5 38.1001 4.74926 37.4864 5.23188 37.0037L20.8821 21.3536L21.2356 21L20.8821 20.6464L5.23188 4.99626C4.74926 4.51364 4.5 3.89995 4.5 3.11407C4.5 2.32819 4.74926 1.7145 5.23188 1.23188C5.7145 0.749259 6.32819 0.5 7.11407 0.5C7.89995 0.5 8.51364 0.749259 8.99626 1.23188L24.6464 16.8821L25 17.2356L25.3536 16.8821L41.0037 1.23188C41.4864 0.749259 42.1001 0.5 42.8859 0.5C43.6718 0.5 44.2855 0.749259 44.7681 1.23188C45.2507 1.7145 45.5 2.32819 45.5 3.11407C45.5 3.89995 45.2507 4.51363 44.7681 4.99626L29.1179 20.6464L28.7644 21L29.1179 21.3536L44.7681 37.0037C45.2507 37.4864 45.5 38.1001 45.5 38.8859C45.5 39.6718 45.2507 40.2855 44.7681 40.7681C44.2855 41.2507 43.6718 41.5 42.8859 41.5C42.1001 41.5 41.4864 41.2507 41.0037 40.7681L25.3536 25.1179Z" stroke="white"/>
</g>
<defs>
<filter id="filter0_d_587_39" x="0" y="0" width="50" height="50" filterUnits="userSpaceOnUse" color-interpolation-filters="sRGB">
<feFlood flood-opacity="0" result="BackgroundImageFix"/>
<feColorMatrix in="SourceAlpha" type="matrix" values="0 0 0 0 0 0 0 0 0 0 0 0 0 0 0 0 0 0 127 0" result="hardAlpha"/>
<feOffset dy="4"/>
<feGaussianBlur stdDeviation="2"/>
<feComposite in2="hardAlpha" operator="out"/>
<feColorMatrix type="matrix" values="0 0 0 0 0 0 0 0 0 0 0 0 0 0 0 0 0 0 0.25 0"/>
<feBlend mode="normal" in2="BackgroundImageFix" result="effect1_dropShadow_587_39"/>
<feBlend mode="normal" in="SourceGraphic" in2="effect1_dropShadow_587_39" result="shape"/>
</filter>
</defs>
</svg>
