<svg width="136" height="136" viewBox="0 0 136 136" fill="none" xmlns="http://www.w3.org/2000/svg">
<g filter="url(#filter0_d_569_53)">
<path d="M113.062 109.064H94.0965V79.3623C94.0965 72.2798 93.97 63.1623 84.2325 63.1623C74.3545 63.1623 72.843 70.8793 72.843 78.8468V109.062H53.878V47.9838H72.0845V56.3308H72.3395C74.1615 53.2153 76.7945 50.6524 79.9579 48.9149C83.1214 47.1774 86.6968 46.3305 90.3035 46.4643C109.526 46.4643 113.07 59.1083 113.07 75.5573L113.062 109.064ZM32.478 39.6353C26.3995 39.6363 21.471 34.7093 21.47 28.6308C21.469 22.5523 26.3955 17.6238 32.474 17.6228C38.5525 17.6213 43.481 22.5483 43.482 28.6268C43.4825 31.5458 42.3235 34.3455 40.2599 36.41C38.1962 38.4745 35.397 39.6347 32.478 39.6353ZM41.961 109.064H22.9755V47.9838H41.9605V109.064L41.961 109.064ZM122.517 0.00931595H13.4455C8.2905 -0.0486841 4.063 4.08082 4 9.23582V118.762C4.061 123.92 8.288 128.053 13.445 127.999H122.517C127.685 128.063 131.928 123.93 132 118.762V9.22732C131.926 4.06232 127.683 -0.0666841 122.517 0.000815946" fill="#0A66C2"/>
</g>
<defs>
<filter id="filter0_d_569_53" x="0" y="0" width="136" height="136" filterUnits="userSpaceOnUse" color-interpolation-filters="sRGB">
<feFlood flood-opacity="0" result="BackgroundImageFix"/>
<feColorMatrix in="SourceAlpha" type="matrix" values="0 0 0 0 0 0 0 0 0 0 0 0 0 0 0 0 0 0 127 0" result="hardAlpha"/>
<feOffset dy="4"/>
<feGaussianBlur stdDeviation="2"/>
<feComposite in2="hardAlpha" operator="out"/>
<feColorMatrix type="matrix" values="0 0 0 0 0 0 0 0 0 0 0 0 0 0 0 0 0 0 0.25 0"/>
<feBlend mode="normal" in2="BackgroundImageFix" result="effect1_dropShadow_569_53"/>
<feBlend mode="normal" in="SourceGraphic" in2="effect1_dropShadow_569_53" result="shape"/>
</filter>
</defs>
</svg>
