<svg width="136" height="137" viewBox="0 0 136 137" fill="none" xmlns="http://www.w3.org/2000/svg">
<g filter="url(#filter0_d_569_44)">
<path d="M6.7318 63.7281C6.7288 74.5666 9.5608 85.1496 14.9458 94.4776L6.2168 126.349L38.8328 117.797C47.8539 122.708 57.9615 125.281 68.2328 125.282H68.2598C102.167 125.282 129.769 97.6901 129.783 63.7766C129.79 47.3431 123.396 31.8901 111.779 20.2641C100.164 8.63907 84.7163 2.23357 68.2573 2.22607C34.3458 2.22607 6.7463 29.8161 6.7323 63.7281" fill="url(#paint0_linear_569_44)"/>
<path d="M4.535 63.708C4.5315 74.9365 7.465 85.898 13.042 95.56L4 128.574L37.7855 119.715C47.0945 124.79 57.5755 127.466 68.2405 127.47H68.268C103.392 127.47 131.985 98.8865 132 63.759C132.006 46.735 125.382 30.7265 113.35 18.684C101.316 6.643 85.3165 0.007 68.268 0C33.138 0 4.5495 28.58 4.5355 63.708H4.535ZM24.655 93.896L23.3935 91.8935C18.0905 83.4615 15.2915 73.7175 15.2955 63.712C15.307 34.5145 39.069 10.76 68.288 10.76C82.438 10.766 95.736 16.282 105.738 26.29C115.74 36.299 121.243 49.604 121.24 63.755C121.227 92.9525 97.464 116.71 68.268 116.71H68.247C58.7405 116.705 49.417 114.152 41.286 109.327L39.351 108.18L19.302 113.437L24.655 93.8955V93.896Z" fill="url(#paint1_linear_569_44)"/>
<path d="M52.3378 37.074C51.1448 34.4225 49.8893 34.369 48.7548 34.3225C47.8258 34.2825 46.7638 34.2855 45.7028 34.2855C44.6408 34.2855 42.9153 34.685 41.4568 36.2775C39.9968 37.8715 35.8828 41.7235 35.8828 49.558C35.8828 57.393 41.5893 64.9645 42.3848 66.028C43.1813 67.0895 53.4013 83.6814 69.5873 90.0644C83.0393 95.3689 85.7768 94.3139 88.6963 94.0479C91.6163 93.7829 98.1183 90.1969 99.4448 86.4785C100.772 82.7605 100.772 79.5735 100.374 78.9075C99.9763 78.2439 98.9143 77.8455 97.3218 77.0494C95.7288 76.2529 87.8998 72.4005 86.4403 71.869C84.9803 71.338 83.9188 71.073 82.8568 72.6675C81.7948 74.2595 78.7453 77.8455 77.8158 78.9075C76.8873 79.972 75.9578 80.1045 74.3658 79.3079C72.7723 78.5089 67.6438 76.8294 61.5593 71.4049C56.8253 67.1839 53.6293 61.9715 52.7003 60.377C51.7713 58.785 52.6008 57.922 53.3993 57.1285C54.1148 56.415 54.9923 55.269 55.7893 54.3395C56.5833 53.4095 56.8483 52.746 57.3793 51.684C57.9108 50.621 57.6448 49.691 57.2473 48.8945C56.8483 48.098 53.7538 40.223 52.3378 37.0745" fill="white"/>
</g>
<defs>
<filter id="filter0_d_569_44" x="0" y="0" width="136" height="136.573" filterUnits="userSpaceOnUse" color-interpolation-filters="sRGB">
<feFlood flood-opacity="0" result="BackgroundImageFix"/>
<feColorMatrix in="SourceAlpha" type="matrix" values="0 0 0 0 0 0 0 0 0 0 0 0 0 0 0 0 0 0 127 0" result="hardAlpha"/>
<feOffset dy="4"/>
<feGaussianBlur stdDeviation="2"/>
<feComposite in2="hardAlpha" operator="out"/>
<feColorMatrix type="matrix" values="0 0 0 0 0 0 0 0 0 0 0 0 0 0 0 0 0 0 0.25 0"/>
<feBlend mode="normal" in2="BackgroundImageFix" result="effect1_dropShadow_569_44"/>
<feBlend mode="normal" in="SourceGraphic" in2="effect1_dropShadow_569_44" result="shape"/>
</filter>
<linearGradient id="paint0_linear_569_44" x1="68" y1="126.349" x2="68" y2="2.22607" gradientUnits="userSpaceOnUse">
<stop stop-color="#1FAF38"/>
<stop offset="1" stop-color="#60D669"/>
</linearGradient>
<linearGradient id="paint1_linear_569_44" x1="68" y1="128.574" x2="68" y2="0" gradientUnits="userSpaceOnUse">
<stop stop-color="#F9F9F9"/>
<stop offset="1" stop-color="white"/>
</linearGradient>
</defs>
</svg>
